<?xml version="1.0" standalone="no"?>
<!DOCTYPE svg PUBLIC "-//W3C//DTD SVG 20010904//EN"
 "http://www.w3.org/TR/2001/REC-SVG-20010904/DTD/svg10.dtd">
<svg version="1.0" xmlns="http://www.w3.org/2000/svg"
 width="1536.000000pt" height="1536.000000pt" viewBox="0 0 1536.000000 1536.000000"
 preserveAspectRatio="xMidYMid meet">

<g transform="translate(0.000000,1536.000000) scale(0.100000,-0.100000)"
fill="#000000" stroke="none">
<path d="M8255 14534 c-257 -66 -373 -107 -519 -183 -114 -59 -110 -56 -192
-120 -190 -148 -355 -369 -422 -566 -57 -166 -87 -356 -80 -500 l3 -67 -90
-19 c-49 -10 -103 -19 -119 -19 -16 0 -52 -7 -80 -15 -28 -8 -91 -24 -141 -35
-107 -25 -307 -87 -344 -106 -14 -8 -31 -14 -37 -14 -14 0 -47 -15 -185 -82
-65 -32 -126 -58 -136 -58 -10 0 -83 32 -161 70 -79 39 -146 70 -149 70 -3 0
-51 22 -106 49 -56 26 -127 58 -157 70 -30 13 -68 29 -85 36 -16 7 -57 23 -90
36 -33 13 -65 26 -70 31 -6 4 -29 11 -50 17 -22 5 -53 14 -70 19 -204 70 -399
90 -525 53 -214 -62 -309 -192 -327 -446 -4 -69 8 -280 21 -340 2 -11 7 -54
11 -95 4 -41 13 -97 21 -124 8 -27 14 -63 14 -80 0 -28 11 -83 41 -211 5 -22
14 -67 19 -100 5 -33 16 -80 25 -104 8 -24 15 -55 15 -70 0 -14 7 -39 15 -55
8 -15 15 -40 15 -55 0 -14 5 -42 11 -61 6 -19 17 -62 25 -95 8 -33 17 -69 20
-80 4 -16 -13 -35 -76 -89 -143 -122 -245 -236 -347 -391 -115 -172 -229 -414
-288 -610 -10 -33 -24 -80 -31 -104 -8 -25 -14 -57 -14 -72 0 -14 -7 -43 -15
-62 -8 -20 -15 -52 -15 -71 0 -19 -5 -47 -11 -63 -10 -27 -28 -144 -50 -328
-14 -113 -6 -855 10 -940 6 -33 15 -103 21 -155 14 -138 45 -339 86 -555 14
-77 32 -172 39 -212 26 -140 77 -189 191 -180 33 2 136 9 229 16 94 6 211 16
260 22 50 6 176 15 280 20 l190 9 23 -27 c13 -16 53 -68 88 -118 175 -243 282
-354 531 -547 56 -43 105 -89 109 -101 17 -55 114 -240 142 -270 15 -17 17
-43 17 -206 0 -159 -3 -190 -17 -216 -10 -16 -18 -37 -18 -45 0 -8 -7 -24 -15
-34 -8 -11 -15 -31 -15 -45 -1 -14 -7 -37 -15 -51 -8 -14 -14 -39 -15 -57 0
-17 -5 -44 -11 -60 -6 -15 -17 -71 -26 -123 -8 -52 -19 -124 -25 -160 -13 -83
-5 -380 11 -445 7 -27 22 -73 32 -100 10 -28 19 -55 19 -60 0 -20 50 -108 101
-176 56 -76 146 -157 209 -189 50 -26 152 -43 265 -45 l90 -1 6 -200 c10 -336
51 -480 167 -593 l55 -53 -7 -77 c-16 -167 -23 -442 -14 -556 22 -309 35 -409
63 -520 30 -117 60 -211 72 -230 7 -11 13 -26 13 -35 0 -18 57 -130 93 -184
15 -21 27 -44 27 -50 0 -7 -23 -34 -51 -61 -114 -112 -167 -284 -123 -400 8
-22 18 -49 21 -60 10 -30 83 -105 123 -125 55 -27 123 -38 281 -45 99 -4 161
-2 193 6 38 9 59 9 104 -2 33 -8 108 -14 177 -14 105 0 125 3 163 23 79 42
134 116 193 257 27 67 49 210 49 326 0 106 3 125 19 143 24 27 81 195 81 241
0 20 5 45 10 56 11 19 29 105 54 254 22 129 35 167 54 163 13 -2 20 -22 28
-78 29 -187 34 -211 80 -370 15 -51 41 -121 66 -180 11 -26 15 -35 58 -115 30
-55 29 -67 -10 -165 -77 -192 -81 -345 -13 -458 49 -81 172 -142 286 -142 45
0 56 -3 110 -32 12 -7 70 -14 128 -16 91 -4 112 -1 151 17 38 17 63 20 154 19
99 -2 114 0 165 24 113 53 184 165 215 341 15 84 16 112 6 185 -27 202 -26
208 12 325 20 60 36 123 36 140 1 18 7 43 15 57 8 14 14 45 15 69 0 25 7 70
15 100 25 94 35 257 44 751 14 709 19 776 59 847 6 12 12 33 12 47 0 14 6 43
14 63 8 21 17 64 21 95 6 57 7 59 80 118 87 72 157 152 231 260 55 81 164 295
164 321 0 8 4 19 9 25 4 5 18 43 31 84 68 229 80 312 80 545 0 105 -5 206 -10
225 -6 19 -15 68 -20 109 -6 41 -14 88 -20 105 -5 17 -19 65 -30 106 -12 41
-25 84 -29 95 -5 11 -25 65 -46 120 -33 88 -122 270 -211 433 l-29 52 30 25
c17 13 33 24 38 25 7 0 86 51 192 124 122 84 386 343 494 485 133 175 264 403
322 559 6 18 19 37 28 41 9 5 99 12 201 16 102 3 239 11 305 16 66 5 204 13
306 19 103 5 197 14 210 19 54 21 80 64 101 168 19 91 21 134 22 613 0 446 -2
528 -17 615 -10 55 -24 141 -32 190 -8 50 -19 122 -26 160 -6 39 -15 97 -20
130 -5 33 -16 80 -24 104 -8 25 -15 54 -15 65 0 12 -6 41 -14 66 -8 25 -19 65
-26 90 -6 25 -15 63 -21 85 -6 22 -14 44 -20 50 -5 5 -9 18 -9 30 -1 11 -9 38
-20 60 -11 22 -19 47 -20 56 0 8 -7 24 -15 35 -8 10 -15 25 -15 32 -1 37 -142
317 -215 427 -208 311 -479 552 -772 685 -72 33 -73 36 -48 152 7 38 24 155
35 260 19 164 21 231 17 448 -5 250 -16 359 -52 495 -19 74 -69 196 -101 247
-29 45 -121 138 -138 138 -5 0 -18 8 -29 18 -28 25 -248 25 -332 -2 -174 -54
-337 -129 -540 -248 -128 -76 -239 -148 -243 -160 -2 -4 -9 -8 -14 -8 -6 0
-34 -17 -62 -38 -28 -21 -80 -60 -116 -86 -36 -25 -90 -67 -121 -91 -60 -48
-69 -51 -97 -35 -33 19 -139 53 -297 94 -55 15 -121 33 -146 41 -26 8 -62 15
-81 15 -19 0 -57 7 -84 15 -27 8 -74 15 -104 15 -30 0 -82 7 -115 15 -36 9
-142 17 -267 21 -243 8 -244 9 -88 84 45 22 108 44 211 74 73 21 309 22 371 2
24 -8 60 -17 82 -21 21 -3 46 -10 55 -15 9 -5 54 -25 100 -44 46 -20 128 -65
182 -102 86 -57 104 -66 145 -66 39 0 52 6 80 33 47 45 59 87 44 150 -7 28
-10 52 -7 55 3 3 36 -11 74 -31 126 -67 198 -65 243 7 18 28 21 44 17 103 -3
39 -12 84 -21 100 -9 17 -16 33 -16 38 0 13 29 7 66 -15 43 -25 118 -30 156
-9 37 19 71 85 65 124 -6 45 -35 122 -85 227 -20 41 -111 193 -121 200 -3 3
-22 25 -41 50 -143 185 -373 351 -575 415 -28 9 -79 25 -115 37 -57 18 -96 21
-305 24 -191 2 -252 0 -300 -12z m2312 -1218 c48 -41 96 -165 122 -316 43
-246 29 -735 -28 -980 -17 -73 -18 -75 -47 -74 -16 0 -59 7 -97 15 l-68 14 8
45 c4 25 7 169 6 320 -1 208 -5 294 -17 355 -9 44 -16 95 -16 114 0 50 -36
106 -82 127 -35 16 -46 16 -101 5 -34 -7 -81 -21 -104 -32 -23 -10 -47 -19
-54 -19 -12 0 -92 -39 -201 -98 -31 -17 -97 -58 -147 -92 l-91 -61 -56 38
c-31 21 -74 48 -95 61 -22 13 -39 29 -39 36 0 7 19 26 43 42 23 16 44 31 47
34 25 26 283 198 375 250 22 13 54 31 70 41 72 43 276 139 345 162 137 46 185
49 227 13z m-5822 -385 c122 -26 296 -84 421 -142 24 -10 47 -19 51 -19 4 -1
26 -9 48 -20 22 -11 43 -19 47 -20 5 0 51 -20 104 -45 52 -25 99 -45 103 -45
17 0 116 -56 116 -66 0 -15 -176 -174 -193 -174 -7 0 -47 17 -90 39 -128 64
-273 104 -434 122 -135 15 -173 6 -212 -50 -15 -22 -30 -58 -33 -81 -10 -73
26 -346 73 -550 29 -128 83 -309 97 -327 15 -21 1 -40 -40 -53 -21 -7 -71 -28
-112 -47 -41 -18 -75 -32 -75 -31 -8 15 -36 120 -39 143 -4 29 -10 56 -38 170
-6 28 -18 79 -24 115 -7 36 -22 110 -33 165 -11 55 -23 118 -26 140 -8 53 -32
209 -48 315 -7 47 -13 146 -13 220 0 171 13 203 96 237 67 28 135 29 254 4z
m5450 -313 c4 -13 10 -126 12 -253 5 -235 -5 -353 -33 -376 -20 -17 -51 6 -64
48 -33 103 -142 285 -222 369 -17 18 -28 40 -26 50 5 28 260 181 304 183 14 1
24 -7 29 -21z m-5122 -353 c105 -30 197 -70 197 -85 0 -7 -17 -37 -39 -68 -47
-69 -111 -177 -111 -187 0 -19 -65 -145 -75 -145 -6 0 -17 26 -23 58 -6 31
-22 111 -36 177 -34 167 -44 253 -32 265 14 14 23 13 119 -15z m3958 -518
c141 -77 359 -77 481 0 21 12 42 23 47 23 6 0 38 -18 73 -39 88 -54 195 -85
251 -74 57 13 67 8 67 -33 0 -19 7 -51 15 -71 8 -19 15 -49 15 -65 0 -16 6
-44 14 -62 7 -18 17 -57 21 -86 4 -29 14 -68 21 -86 8 -18 14 -48 14 -66 1
-18 7 -44 15 -58 8 -14 14 -42 15 -62 0 -21 6 -55 14 -75 7 -21 18 -65 24 -98
6 -33 16 -84 22 -114 6 -29 9 -55 6 -58 -2 -2 -40 20 -83 50 -122 86 -287 162
-423 197 -468 120 -991 -55 -1298 -433 -178 -219 -279 -451 -300 -686 l-7 -73
-245 -2 c-157 -1 -261 -5 -290 -13 -25 -7 -67 -17 -95 -21 -27 -5 -57 -12 -66
-16 -13 -6 -21 5 -37 46 -31 82 -31 82 -41 98 -5 8 -26 49 -46 90 -88 177
-214 322 -385 442 -67 47 -237 138 -260 138 -6 0 -24 6 -38 14 -41 20 -154 56
-179 56 -12 0 -50 7 -85 16 -85 22 -327 14 -448 -14 -108 -26 -257 -75 -272
-90 -7 -7 -18 -12 -25 -12 -6 0 -35 -13 -63 -30 -28 -16 -53 -30 -57 -30 -15
0 -146 -102 -210 -164 -40 -38 -74 -65 -74 -60 -5 36 4 355 12 423 5 46 16
147 25 225 23 221 26 246 35 252 5 3 55 7 112 8 92 3 108 6 165 35 39 20 96
63 153 119 50 48 97 91 106 95 17 10 70 6 158 -13 78 -16 179 -7 246 21 28 13
79 47 113 76 99 86 110 89 241 68 60 -10 135 -24 165 -31 140 -35 273 -7 380
81 100 83 136 99 216 99 45 -1 81 -6 100 -17 16 -9 71 -30 123 -47 179 -57
300 -35 461 85 30 23 74 49 97 59 42 19 43 18 115 -4 40 -13 100 -35 133 -50
144 -64 140 -63 252 -63 102 0 111 2 168 32 33 17 80 46 104 63 74 52 143 54
232 5z m564 -1021 c391 -102 672 -396 771 -806 27 -112 25 -325 -4 -447 -65
-269 -225 -507 -437 -647 -184 -122 -366 -177 -590 -178 -184 0 -312 28 -465
102 -293 143 -507 421 -575 748 -20 98 -20 320 1 415 49 224 155 411 320 566
138 129 313 219 504 260 135 29 334 24 475 -13z m-3265 -359 c320 -82 555
-273 703 -573 62 -125 107 -315 107 -453 0 -43 -9 -124 -19 -182 -35 -185 -86
-301 -174 -393 -32 -34 -75 -91 -97 -128 -64 -106 -171 -190 -341 -264 -156
-69 -247 -88 -429 -88 -131 0 -169 4 -245 24 -104 27 -193 63 -285 115 -289
163 -491 480 -519 814 -34 393 142 765 462 980 141 94 261 138 477 175 66 12
269 -4 360 -27z m1666 -868 c49 -13 58 -24 69 -84 17 -96 109 -319 152 -367
21 -24 8 -38 -36 -38 -21 0 -55 -7 -76 -15 l-37 -16 -42 39 c-56 51 -174 92
-266 92 -98 -1 -201 -39 -269 -100 -32 -28 -40 -31 -95 -28 -72 4 -70 -15 -26
188 5 25 9 98 10 162 0 141 0 141 130 158 47 6 87 14 89 16 10 9 356 3 397 -7z
m2460 -545 c3 -44 11 -124 19 -180 10 -65 15 -188 15 -348 1 -247 1 -248 26
-288 38 -59 77 -72 196 -64 91 6 97 6 91 -11 -3 -10 -9 -22 -13 -28 -4 -5 -27
-46 -50 -90 -143 -269 -407 -572 -643 -735 -31 -22 -78 -55 -104 -73 -27 -18
-55 -36 -63 -40 -8 -4 -42 -23 -75 -42 -253 -148 -690 -315 -995 -380 -41 -9
-97 -23 -124 -31 -26 -8 -58 -14 -70 -14 -11 0 -52 -6 -91 -14 -95 -20 -251
-44 -365 -56 -52 -6 -126 -15 -165 -20 -205 -27 -934 -20 -1100 11 -111 20
-110 19 -107 64 3 41 0 61 -37 199 -29 108 -28 193 2 237 34 50 37 63 38 159
0 69 -4 99 -22 141 -42 102 -123 163 -236 180 -70 11 -127 31 -139 50 -3 6
-34 24 -68 40 -51 24 -74 29 -137 29 -74 0 -154 -17 -214 -45 -16 -8 -61 -16
-100 -18 -182 -11 -339 -168 -379 -378 -8 -39 -18 -75 -23 -80 -14 -14 -210
181 -302 301 -44 57 -77 107 -73 111 4 4 43 9 87 12 105 8 145 20 181 58 27
28 29 36 27 99 -1 38 -7 79 -14 91 -6 13 -17 48 -25 78 -7 31 -19 83 -27 116
-7 33 -19 70 -25 82 -7 12 -12 35 -12 52 0 17 -7 48 -16 70 -8 22 -14 51 -12
66 l3 26 70 -47 c121 -81 246 -134 410 -175 124 -31 439 -34 555 -5 155 39
300 98 404 164 27 17 52 29 57 27 4 -3 22 -31 39 -62 69 -121 214 -235 357
-279 76 -24 94 -26 222 -22 79 2 144 8 152 14 8 6 27 14 43 18 35 8 153 83
180 114 11 12 22 22 27 22 4 0 38 -19 75 -42 98 -59 143 -77 236 -94 149 -26
300 0 424 72 138 81 244 268 244 432 0 80 4 84 63 58 51 -22 170 -56 194 -56
12 0 34 -5 50 -11 36 -14 392 -15 419 -2 10 6 45 14 76 17 32 4 60 11 63 16 3
4 23 11 46 15 22 4 53 13 67 21 15 8 32 14 38 14 26 0 204 100 279 157 129 97
243 220 305 327 18 32 34 55 36 53 3 -2 7 -40 10 -83z m-2059 -216 c80 -37
127 -92 153 -176 51 -163 -2 -307 -136 -373 -42 -20 -64 -23 -154 -23 -87 0
-115 4 -163 23 -140 55 -262 236 -217 320 5 10 33 36 62 58 29 22 71 67 94 99
77 113 215 141 361 72z m-931 -45 c42 -73 80 -118 132 -157 48 -34 48 -35 65
-128 9 -51 17 -105 17 -120 0 -38 -51 -92 -118 -125 -51 -25 -67 -28 -162 -28
-97 0 -110 2 -172 32 -124 58 -211 173 -212 278 -1 96 74 184 216 257 62 32
83 38 140 38 l66 0 28 -47z m-1193 -1304 c8 -13 3 -26 -20 -56 -72 -90 -78
-140 -23 -194 21 -21 38 -29 65 -29 46 0 78 22 118 79 46 67 86 101 121 101
67 0 84 -61 41 -142 -37 -70 -58 -163 -52 -228 3 -30 19 -98 36 -150 33 -100
40 -190 18 -208 -8 -7 -126 -13 -308 -18 l-295 -7 -36 42 c-38 45 -108 177
-132 253 -8 25 -21 85 -27 131 -15 98 -3 208 30 283 26 57 51 59 51 4 0 -53
17 -87 57 -111 57 -36 125 -8 151 61 5 14 13 51 16 83 5 38 15 66 29 82 38 42
139 57 160 24z m3465 -746 c25 -22 117 -176 171 -286 76 -155 113 -260 167
-467 20 -77 44 -299 44 -403 0 -101 -23 -287 -46 -372 -28 -102 -56 -185 -65
-191 -5 -3 -9 -12 -9 -20 0 -29 -115 -189 -195 -273 -153 -160 -274 -226 -486
-265 -162 -30 -175 -24 -164 83 8 85 -8 223 -42 351 -41 152 -41 145 7 177
155 105 241 210 293 358 18 52 21 83 21 225 0 139 -4 177 -22 240 -32 114 -46
148 -72 175 -50 54 -143 37 -175 -32 -17 -35 -17 -40 8 -132 53 -203 58 -261
29 -376 -32 -127 -109 -215 -252 -286 -61 -31 -71 -32 -164 -31 -55 1 -101 3
-102 5 -2 1 18 13 44 27 26 13 63 37 84 52 37 29 88 105 88 131 0 8 25 42 55
76 69 78 86 110 92 181 5 48 1 67 -21 116 -15 32 -43 78 -64 103 -34 42 -37
50 -38 120 -2 64 -6 80 -31 115 -16 23 -48 51 -70 64 -29 16 -52 40 -73 77
-40 70 -77 100 -148 121 -31 10 -61 21 -66 25 -9 8 -9 9 129 34 346 63 685
158 965 268 79 31 82 32 108 10z m-3148 -328 c17 -21 25 -92 11 -108 -12 -16
-358 -28 -491 -18 -71 6 -75 8 -84 34 -7 19 -7 34 0 45 16 25 131 44 324 51
96 4 187 8 201 9 15 1 32 -5 39 -13z m580 -30 c265 -18 436 -19 695 -3 113 6
217 8 240 3 l40 -8 -31 -7 c-45 -10 -126 -67 -155 -108 -30 -45 -59 -119 -59
-154 0 -15 -4 -29 -9 -33 -5 -3 -81 -7 -168 -9 -356 -8 -595 -86 -678 -220
-26 -42 -30 -58 -28 -112 2 -61 0 -64 -37 -101 -67 -65 -74 -112 -68 -471 l5
-304 -67 -86 c-80 -103 -224 -246 -242 -240 -8 3 -15 32 -19 79 -4 41 -10 100
-14 131 l-8 58 58 86 c108 162 158 302 212 594 15 79 18 152 18 435 0 239 -4
361 -13 410 -17 86 -8 97 66 83 26 -5 144 -15 262 -23z m1280 28 c0 -9 -87
-51 -110 -55 -25 -3 -120 13 -125 22 -7 12 8 20 57 29 55 11 178 13 178 4z
m120 -205 c11 -12 25 -40 31 -62 16 -59 36 -83 85 -102 48 -18 52 -30 34 -93
-11 -40 14 -98 55 -125 29 -19 85 -101 85 -125 0 -8 -29 -43 -65 -77 -49 -47
-65 -69 -65 -90 0 -44 -36 -92 -80 -105 -59 -18 -145 -3 -183 31 l-32 28 18
50 c36 103 12 155 -81 172 -100 18 -121 47 -101 135 19 85 -3 113 -111 146
-55 17 -76 49 -66 103 16 84 73 103 202 69 l65 -17 81 42 c44 23 87 42 94 42
7 0 22 -10 34 -22z m-1944 -159 c28 -23 10 -416 -28 -609 -26 -136 -70 -268
-114 -349 -159 -289 -367 -353 -511 -157 -102 138 -139 268 -129 456 8 162 25
306 42 366 8 28 14 61 14 73 0 26 57 201 72 218 12 16 101 19 402 16 160 -2
243 -7 252 -14z m854 -279 c0 -5 -7 -10 -16 -10 -8 0 -12 5 -9 10 3 6 10 10
16 10 5 0 9 -4 9 -10z m-70 -30 c0 -5 -9 -10 -20 -10 -11 0 -20 5 -20 10 0 6
9 10 20 10 11 0 20 -4 20 -10z m-154 -241 c143 -49 246 -63 474 -64 219 0 335
13 433 51 70 26 82 21 100 -45 9 -32 28 -72 41 -89 56 -65 57 -133 2 -123 -5
1 -73 11 -151 22 -131 18 -148 18 -213 4 -79 -16 -139 -49 -170 -92 -37 -53
-61 -110 -68 -164 -4 -30 -18 -79 -33 -109 -20 -43 -26 -70 -26 -125 0 -60 5
-78 33 -130 28 -49 35 -74 39 -140 7 -96 44 -187 93 -228 81 -68 201 -107 333
-107 90 0 114 -11 103 -48 -14 -42 -177 -94 -351 -113 -192 -20 -569 19 -643
67 -20 13 -22 20 -16 62 5 43 3 52 -34 107 l-39 60 -7 295 c-4 162 -11 363
-15 445 -4 83 -6 212 -3 289 5 128 7 140 29 167 14 16 26 29 27 29 2 0 29 -9
62 -21z m909 -475 c61 -8 154 -19 208 -23 63 -5 103 -13 112 -22 38 -38 80
-517 49 -549 -28 -28 -139 -43 -319 -44 -167 -1 -183 1 -221 21 -41 22 -59 46
-49 63 3 5 25 12 49 15 60 9 104 39 122 80 12 30 12 39 0 69 -23 55 -56 70
-146 67 -71 -2 -80 0 -94 21 -34 49 -10 78 64 78 59 0 100 42 100 101 0 36 -6
47 -41 81 -23 22 -38 43 -33 48 12 11 45 18 69 14 11 -2 70 -11 130 -20z m691
-59 c26 -35 66 -238 71 -360 7 -150 2 -157 -91 -153 l-61 3 -7 135 c-6 123
-16 213 -38 328 -11 58 7 76 69 69 26 -3 50 -12 57 -22z m-1912 -630 c3 -82 6
-163 7 -180 2 -16 0 -42 -3 -56 -8 -33 28 -114 66 -148 47 -44 36 -51 -74 -51
-212 0 -333 90 -347 257 l-6 69 89 65 c49 36 124 98 167 138 44 40 83 69 87
65 5 -5 11 -76 14 -159z m2571 -75 c3 -5 -4 -41 -16 -80 -38 -125 -149 -216
-294 -240 -91 -15 -780 -26 -789 -12 -3 6 9 23 27 39 56 46 72 80 72 147 0 56
2 62 28 74 40 19 180 31 512 42 172 6 316 15 355 24 82 17 97 18 105 6z m-107
-522 c5 -13 5 -144 1 -293 -4 -148 -8 -391 -9 -540 -2 -402 -20 -618 -62 -711
-30 -68 -95 -127 -165 -150 -46 -14 -90 -18 -208 -19 -134 0 -155 2 -198 22
-57 27 -150 112 -184 171 -33 56 -73 193 -73 251 0 24 -6 105 -14 180 -8 75
-20 193 -25 263 -13 149 -29 198 -74 223 -28 15 -61 16 -267 13 -326 -4 -318
3 -331 -283 -18 -396 -29 -505 -54 -566 -35 -87 -83 -147 -140 -178 -49 -26
-53 -26 -246 -26 -129 0 -201 4 -210 12 -8 6 -34 14 -58 18 -33 5 -54 18 -87
51 -63 62 -102 158 -138 339 -28 140 -46 858 -27 1085 l6 74 480 2 c639 4
1244 13 1605 24 274 9 301 11 370 34 93 31 99 31 108 4z m-2288 -1857 c184
-43 350 -53 450 -26 75 20 97 19 105 -5 8 -25 -20 -130 -53 -197 -21 -42 -34
-56 -66 -68 -44 -18 -97 -13 -116 10 -9 11 -9 25 1 64 22 87 -19 146 -101 146
-65 0 -84 -20 -115 -120 -18 -60 -30 -84 -44 -88 -35 -9 -43 6 -36 69 7 55 5
62 -20 92 -36 43 -83 51 -129 23 -26 -16 -40 -38 -63 -93 -16 -39 -33 -73 -39
-75 -26 -9 -47 24 -46 71 0 59 51 141 115 187 45 33 58 33 157 10z m2204 -67
c21 -55 -13 -215 -55 -260 -24 -26 -67 -32 -87 -12 -7 7 -12 31 -12 54 0 46
-25 85 -67 106 -46 22 -38 36 34 57 37 11 84 32 103 45 40 29 75 33 84 10z
m-674 -9 c39 -20 38 -35 -4 -77 -29 -29 -36 -44 -42 -97 -7 -65 -22 -83 -49
-61 -22 18 -19 99 6 181 23 76 34 82 89 54z m358 -81 c10 -3 4 -15 -17 -41
-23 -28 -31 -48 -31 -76 0 -90 -55 -143 -118 -113 l-33 16 7 85 c5 62 3 89 -6
100 -7 8 -10 21 -7 29 5 12 23 14 99 10 51 -3 99 -8 106 -10z"/>
<path d="M9130 10437 c-231 -60 -424 -215 -526 -422 -53 -108 -73 -182 -81
-295 -11 -161 27 -276 148 -446 149 -210 345 -364 517 -408 142 -36 245 -28
387 31 127 53 299 191 384 309 110 154 119 352 25 539 -108 213 -276 360 -461
399 -123 27 -155 27 -259 7 -257 -50 -410 -185 -445 -392 -30 -184 46 -352
210 -460 104 -68 189 -93 316 -92 76 0 114 5 159 21 77 28 159 91 193 150 25
42 28 57 28 132 0 73 -4 92 -28 137 -94 181 -279 250 -419 158 -43 -28 -78
-89 -78 -135 0 -40 34 -105 65 -126 17 -11 35 -14 59 -10 41 8 57 40 53 106
-2 45 -2 45 33 48 63 5 135 -62 162 -150 23 -78 -41 -146 -165 -172 -162 -34
-348 57 -415 202 -83 182 31 366 265 427 148 39 317 -5 438 -112 36 -31 104
-123 139 -186 115 -207 68 -378 -150 -553 -78 -62 -183 -116 -263 -134 -170
-39 -376 57 -546 257 -188 220 -234 354 -186 538 60 232 216 398 446 475 91
31 276 33 370 5 265 -79 444 -215 544 -411 48 -96 72 -181 80 -292 9 -122 26
-155 83 -160 78 -7 96 75 59 265 -79 395 -356 665 -778 757 -104 23 -258 20
-363 -7z"/>
<path d="M6054 10110 c-325 -41 -670 -312 -769 -605 -24 -70 -45 -196 -45
-270 1 -340 199 -633 496 -735 47 -17 84 -20 216 -20 456 0 759 174 849 488
28 98 27 337 -2 448 -60 229 -195 365 -409 410 -95 20 -308 14 -390 -11 -226
-70 -397 -256 -446 -486 -11 -52 -14 -103 -11 -168 5 -82 10 -104 41 -167 76
-154 224 -244 400 -244 271 0 526 242 526 500 0 127 -50 212 -154 261 -54 25
-72 29 -154 29 -82 0 -99 -3 -150 -29 -139 -71 -201 -216 -136 -318 36 -54 70
-73 136 -73 65 0 98 26 98 79 0 25 -6 35 -31 49 -17 9 -41 25 -53 34 l-21 16
21 29 c58 79 213 85 268 10 17 -23 21 -42 20 -92 -3 -118 -95 -245 -224 -308
-56 -27 -76 -31 -145 -31 -67 0 -88 4 -130 26 -137 72 -190 206 -147 374 60
238 254 383 514 384 77 0 184 -23 239 -51 131 -67 197 -194 206 -404 6 -141
-5 -211 -47 -299 -78 -164 -262 -266 -532 -295 -198 -22 -293 -11 -393 44
-173 96 -284 287 -301 516 -27 360 299 707 713 760 79 10 106 9 187 -6 114
-20 171 -41 288 -103 84 -45 89 -46 115 -32 15 9 34 27 42 42 14 24 13 29 -11
65 -37 56 -178 125 -344 167 -76 19 -239 27 -330 16z"/>
<path d="M6776 7646 c-33 -31 -36 -38 -36 -90 0 -54 2 -60 48 -109 86 -93 87
-95 87 -245 l0 -134 37 -34 c58 -52 124 -47 192 15 22 20 30 23 34 12 8 -24
48 -55 87 -70 34 -12 41 -11 82 10 52 27 67 46 88 115 32 107 11 276 -48 379
-57 101 -168 114 -228 27 l-23 -34 -21 26 c-55 72 -111 133 -137 149 -17 10
-48 17 -78 17 -41 0 -54 -5 -84 -34z"/>
</g>
</svg>
